<mxfile host="65bd71144e">
    <diagram id="XF5VA5744BHboaNAUyGD" name="Page-1">
        <mxGraphModel dx="1626" dy="825" grid="1" gridSize="10" guides="1" tooltips="1" connect="1" arrows="1" fold="1" page="1" pageScale="1" pageWidth="850" pageHeight="1100" math="0" shadow="0">
            <root>
                <mxCell id="0"/>
                <mxCell id="1" parent="0"/>
                <mxCell id="19" value="" style="rounded=0;whiteSpace=wrap;html=1;fillColor=#808080;strokeColor=#36393d;" parent="1" vertex="1">
                    <mxGeometry width="850" height="1200" as="geometry"/>
                </mxCell>
                <mxCell id="2" value="&lt;font face=&quot;Times New Roman&quot; style=&quot;font-size: 80px;&quot;&gt;ALCOHOL&lt;/font&gt;" style="rounded=0;whiteSpace=wrap;html=1;fillColor=#FFFFFF;fontColor=#000000;strokeColor=#FFFFFF;" parent="1" vertex="1">
                    <mxGeometry x="10" y="10" width="830" height="210" as="geometry"/>
                </mxCell>
                <mxCell id="3" value="HOME" style="rounded=0;whiteSpace=wrap;html=1;fillColor=#FFFFFF;fontColor=#000000;strokeColor=#FFFFFF;" parent="1" vertex="1">
                    <mxGeometry x="11.25" y="240" width="120" height="50" as="geometry"/>
                </mxCell>
                <mxCell id="4" value="FAQ" style="rounded=0;whiteSpace=wrap;html=1;fillColor=#FFFFFF;fontColor=#000000;strokeColor=#FFFFFF;" parent="1" vertex="1">
                    <mxGeometry x="430" y="240" width="120" height="50" as="geometry"/>
                </mxCell>
                <mxCell id="5" value="Help" style="rounded=0;whiteSpace=wrap;html=1;fillColor=#FFFFFF;fontColor=#000000;strokeColor=#FFFFFF;" parent="1" vertex="1">
                    <mxGeometry x="290" y="240" width="120" height="50" as="geometry"/>
                </mxCell>
                <mxCell id="6" value="Effects" style="rounded=0;whiteSpace=wrap;html=1;fillColor=#FFFFFF;fontColor=#000000;strokeColor=#FFFFFF;" parent="1" vertex="1">
                    <mxGeometry x="150" y="240" width="120" height="50" as="geometry"/>
                </mxCell>
                <mxCell id="8" value="image1" style="rounded=0;whiteSpace=wrap;html=1;fillColor=#FFFFFF;fontColor=#000000;strokeColor=#FFFFFF;" parent="1" vertex="1">
                    <mxGeometry x="13.75" y="310" width="297.5" height="190" as="geometry"/>
                </mxCell>
                <mxCell id="9" value="text 1" style="rounded=0;whiteSpace=wrap;html=1;fillColor=#FFFFFF;fontColor=#000000;labelBorderColor=none;strokeColor=#FFFFFF;" parent="1" vertex="1">
                    <mxGeometry x="330" y="310" width="510" height="190" as="geometry"/>
                </mxCell>
                <mxCell id="15" value="FOOTER" style="rounded=0;whiteSpace=wrap;html=1;fillColor=#FFFFFF;fontColor=#000000;strokeColor=#FFFFFF;" parent="1" vertex="1">
                    <mxGeometry x="10" y="1130" width="830" height="60" as="geometry"/>
                </mxCell>
                <mxCell id="18" value="text 4" style="rounded=0;whiteSpace=wrap;html=1;fillColor=#FFFFFF;fontColor=#000000;strokeColor=#FFFFFF;" parent="1" vertex="1">
                    <mxGeometry x="330" y="910" width="510" height="210" as="geometry"/>
                </mxCell>
                <mxCell id="21" value="image2" style="rounded=0;whiteSpace=wrap;html=1;fillColor=#FFFFFF;fontColor=#000000;strokeColor=#FFFFFF;" parent="1" vertex="1">
                    <mxGeometry x="13.75" y="510" width="297.5" height="190" as="geometry"/>
                </mxCell>
                <mxCell id="22" value="image3" style="rounded=0;whiteSpace=wrap;html=1;fillColor=#FFFFFF;fontColor=#000000;strokeColor=#FFFFFF;" parent="1" vertex="1">
                    <mxGeometry x="13.75" y="710" width="297.5" height="190" as="geometry"/>
                </mxCell>
                <mxCell id="23" value="text 2" style="rounded=0;whiteSpace=wrap;html=1;fillColor=#FFFFFF;fontColor=#000000;labelBorderColor=none;strokeColor=#FFFFFF;" parent="1" vertex="1">
                    <mxGeometry x="330" y="510" width="510" height="190" as="geometry"/>
                </mxCell>
                <mxCell id="24" value="text 3" style="rounded=0;whiteSpace=wrap;html=1;fillColor=#FFFFFF;fontColor=#000000;labelBorderColor=none;strokeColor=#FFFFFF;" parent="1" vertex="1">
                    <mxGeometry x="330" y="710" width="510" height="190" as="geometry"/>
                </mxCell>
                <mxCell id="25" value="image4" style="rounded=0;whiteSpace=wrap;html=1;fillColor=#FFFFFF;fontColor=#000000;strokeColor=#FFFFFF;" parent="1" vertex="1">
                    <mxGeometry x="10" y="910" width="300" height="210" as="geometry"/>
                </mxCell>
            </root>
        </mxGraphModel>
    </diagram>
</mxfile>